<?xml version="1.0" standalone="no"?><!DOCTYPE svg PUBLIC "-//W3C//DTD SVG 1.1//EN" "http://www.w3.org/Graphics/SVG/1.1/DTD/svg11.dtd"><svg t="1764059186445" class="icon" viewBox="0 0 1024 1024" version="1.1" xmlns="http://www.w3.org/2000/svg" p-id="9622" xmlns:xlink="http://www.w3.org/1999/xlink" width="64" height="64"><path d="M229.333333 321.194667a236.373333 236.373333 0 1 0 118.186667-204.16 235.136 235.136 0 0 0-118.186667 204.16z m0 0" fill="#1296db" p-id="9623"></path><path d="M469.333333 597.12c-186.624 0-345.088 129.578667-383.402666 272.512a57.685333 57.685333 0 0 0 57.429333 68.821333h655.232a52.736 52.736 0 0 0 52.650667-68.821333c-37.930667-142.762667-195.285333-272.512-381.909334-272.512z" fill="#1296db" p-id="9624"></path><path d="M725.333333 512h170.666667a42.666667 42.666667 0 0 1 0 85.333333h-170.666667a44.288 44.288 0 0 1-42.666666-42.666666 42.282667 42.282667 0 0 1 42.666666-42.666667z" fill="#1296db" p-id="9625"></path><path d="M810.666667 256h85.333333a42.666667 42.666667 0 0 1 0 85.333333h-85.333333a44.288 44.288 0 0 1-42.666667-42.666666 42.282667 42.282667 0 0 1 42.666667-42.666667z" fill="#1296db" p-id="9626"></path><path d="M768 384h128a42.666667 42.666667 0 0 1 0 85.333333h-128a44.288 44.288 0 0 1-42.666667-42.666666 42.282667 42.282667 0 0 1 42.666667-42.666667z" fill="#1296db" p-id="9627"></path></svg>